<!-- <?xml version="1.0" encoding="UTF-8" standalone="no"?>
<!DOCTYPE svg PUBLIC "-//W3C//DTD SVG 1.1//EN" "http://www.w3.org/Graphics/SVG/1.1/DTD/svg11.dtd">
<svg version="1.1" xmlns="http://www.w3.org/2000/svg" preserveAspectRatio="xMidYMid meet" viewBox="0 0 512 512" width="1em" height="1em">
  <defs>
    <path d="M347.71 80.84L347.71 121.26L311.49 175.16L271.65 229.05L231.81 296.42L191.96 327.86L170.23 363.79L137.63 413.19L137.63 467.09L137.63 512L202.83 512L409.28 256L449.12 206.6L481.72 152.7L512 107.79L512 35.93L449.12 0L373.06 0L289.76 35.93L0 413.19" id="b3B7ftjZu"></path>
  </defs>
  <g>
    <g>
      <g>
        <g>
          <use href="#b3B7ftjZu" opacity="1" fill-opacity="0" stroke="#ff0000" stroke-width="1" stroke-opacity="1"></use>
        </g>
      </g>
    </g>
  </g>
</svg> -->

<?xml version="1.0"?>

<!DOCTYPE svg PUBLIC '-//W3C//DTD SVG 1.0//EN' 'http://www.w3.org/TR/2001/REC-SVG-20010904/DTD/svg10.dtd'>
<svg fill-opacity="1" xmlns:xlink="http://www.w3.org/1999/xlink" color-rendering="auto" color-interpolation="auto" text-rendering="auto" stroke="black" stroke-linecap="square" stroke-miterlimit="10" shape-rendering="auto" stroke-opacity="1" fill="black" stroke-dasharray="none" font-weight="normal" stroke-width="1" xmlns="http://www.w3.org/2000/svg" font-family="&apos;Dialog&apos;" font-style="normal" stroke-linejoin="miter" font-size="12" stroke-dashoffset="0" image-rendering="auto">
  <!--Unicode Character 'LINK SYMBOL' (U+1F517)-->
  <defs id="genericDefs" />
  <g>
    <g>
      <path d="M279.8438 196.5938 Q279.8438 212.4844 271.8281 223.0312 Q267.4688 228.7969 247.5 249.0469 Q238.2188 258.8906 218.5312 277.1719 Q207.1406 286.4531 189.2812 286.4531 Q179.4375 286.4531 169.4531 282.2344 L144.8438 306.2812 Q149.625 319.0781 149.625 327.0938 Q149.625 342.9844 140.625 354.2344 Q135.9844 360 117 379.2656 Q108.1406 388.5469 89.5781 406.2656 Q77.4844 416.8125 59.7656 416.8125 Q40.6406 416.8125 26.0859 402.3984 Q11.5312 387.9844 11.5312 369 Q11.5312 351.8438 20.8125 340.875 Q26.0156 334.6875 45.1406 315.2812 Q53.5781 306.5625 71.0156 289.8281 Q76.2188 285.3281 85.9219 282.0938 Q95.0625 279.1406 102.5156 279.1406 Q112.6406 279.1406 122.4844 283.9219 L146.9531 259.1719 Q142.1719 251.4375 142.1719 238.9219 Q142.1719 226.4062 147.5156 216.7031 Q152.2969 208.125 168.6094 191.8125 Q180.8438 180 193.0781 168.1875 Q196.7344 164.5312 204.4688 157.7812 Q216.4219 148.9219 231.8906 148.9219 Q251.2969 148.9219 265.5703 163.0547 Q279.8438 177.1875 279.8438 196.5938 ZM248.2031 196.875 Q248.2031 190.2656 243.4922 185.4141 Q238.7812 180.5625 232.3125 180.5625 Q225.9844 180.5625 221.7656 184.2188 Q217.4062 188.8594 208.6875 197.8594 Q199.2656 207.5625 182.8125 224.2969 Q186.0469 223.1719 189.2812 223.1719 Q195.6094 223.1719 201.0234 228.2344 Q206.4375 233.2969 206.4375 239.625 Q206.4375 242.4375 204.8906 246.5156 Q222.8906 228.6562 234.1406 216.9844 Q238.6406 212.9062 246.2344 203.9062 Q248.2031 200.6719 248.2031 196.875 ZM269.0156 196.4531 Q269.0156 181.5469 258.0469 170.6484 Q247.0781 159.75 232.1719 159.75 Q217.9688 159.75 209.5312 166.9219 Q204.0469 171.5625 183.2344 192.375 Q175.0781 200.25 159.75 216.7031 Q152.5781 225.2812 152.5781 239.3438 Q152.5781 248.625 155.1094 250.875 Q157.9219 248.0625 163.6875 242.5781 Q163.5469 240.8906 163.5469 239.625 Q163.5469 228.5156 168.3281 223.0312 Q171.7031 219.2344 195.3281 195.6094 Q202.5 188.0156 218.1094 174.2344 Q223.7344 170.1562 232.1719 170.1562 Q243 170.1562 250.5938 177.9609 Q258.1875 185.7656 258.1875 196.5938 Q258.1875 205.4531 254.1094 211.5 Q249.3281 218.5312 240.0469 227.1094 Q232.1719 234 224.2969 241.0312 Q216.9844 248.4844 209.8125 255.9375 Q200.1094 264.7969 191.9531 264.7969 Q191.1094 264.7969 189.5625 264.5859 Q188.0156 264.375 187.1719 264.375 Q186.1875 264.375 177.6094 273.7969 Q183.2344 276.0469 189.7031 276.0469 Q200.1094 276.0469 207.2812 271.5469 Q212.2031 268.4531 230.7656 250.1719 Q240.8906 240.75 250.875 231.3281 Q263.5312 218.6719 266.9062 209.8125 Q269.0156 204.3281 269.0156 196.4531 ZM195.1875 239.9062 Q193.7812 234.8438 188.4375 233.5781 Q179.4375 241.5938 138.7969 282.0938 Q96.1875 324.4219 96.1875 326.25 Q96.1875 327.6562 98.2969 330.1172 Q100.4062 332.5781 101.8125 332.5781 Q103.6406 332.5781 146.3906 289.8281 Q187.5938 248.625 195.1875 239.9062 ZM138.7969 326.5312 Q138.7969 319.6406 136.8281 314.7188 Q133.7344 316.9688 130.5 319.3594 Q127.125 322.3125 127.125 325.9688 Q127.125 326.8125 127.2656 328.5 Q127.4062 330.1875 127.4062 331.0312 Q127.4062 335.8125 124.3125 340.4531 Q120.9375 345.5156 98.5078 367.875 Q76.0781 390.2344 72 392.3438 Q65.6719 395.5781 59.2031 395.5781 Q48.375 395.5781 40.5703 387.9141 Q32.7656 380.25 32.7656 369.4219 Q32.7656 358.7344 39.375 351.5625 Q41.625 349.0312 66.0938 325.125 Q73.4062 317.3906 87.4688 304.5938 Q92.6719 300.7969 101.1094 300.7969 Q101.6719 300.7969 102.7969 301.0078 Q103.9219 301.2188 104.4844 301.2188 Q105.6094 301.2188 113.4844 291.9375 Q108 289.5469 101.8125 289.5469 Q89.2969 289.5469 80.0859 297.2109 Q70.875 304.875 48.9375 326.9531 Q41.7656 333.8438 28.5469 348.1875 Q22.3594 355.7812 22.3594 369.4219 Q22.3594 384.4688 33.3281 395.4375 Q44.2969 406.4062 59.2031 406.4062 Q72.7031 406.4062 81.2812 399.2344 Q88.1719 393.4688 110.5312 371.1094 Q117.9844 363.9375 132.0469 348.6094 Q138.7969 340.3125 138.7969 326.5312 ZM108.2812 342.7031 Q105.4688 343.4062 102.6562 343.4062 Q96.0469 343.4062 90.7031 337.7109 Q85.3594 332.0156 85.3594 325.4062 Q85.3594 322.875 86.0625 319.9219 Q72.2812 332.5781 46.8281 359.5781 Q43.1719 363.9375 43.1719 369 Q43.1719 375.4688 47.9531 380.0391 Q52.7344 384.6094 59.2031 384.6094 Q65.25 384.6094 68.3438 382.3594 Q69.8906 381.2344 80.1562 371.1094 Q89.5781 361.5469 108.2812 342.7031 Z" stroke="none" />
    </g>
  </g>
</svg>
